<mxfile host="Electron" modified="2023-10-21T17:47:20.546Z" agent="Mozilla/5.0 (X11; Linux x86_64) AppleWebKit/537.36 (KHTML, like Gecko) draw.io/22.0.3 Chrome/114.0.5735.289 Electron/25.8.4 Safari/537.36" etag="BY1vt-CStqAkxXFdI1Gd" version="22.0.3" type="device">
  <diagram name="Page-1" id="bmKVNBAZdmQCFvibIGMG">
    <mxGraphModel dx="1687" dy="995" grid="1" gridSize="10" guides="1" tooltips="1" connect="1" arrows="1" fold="1" page="1" pageScale="1" pageWidth="850" pageHeight="1100" math="0" shadow="0">
      <root>
        <mxCell id="0" />
        <mxCell id="1" parent="0" />
        <mxCell id="ogQ2ZfTk6lIMwp81I9Cb-1" value="" style="rounded=0;whiteSpace=wrap;html=1;fontSize=20;" vertex="1" parent="1">
          <mxGeometry width="1280" height="720" as="geometry" />
        </mxCell>
        <mxCell id="ogQ2ZfTk6lIMwp81I9Cb-2" value="MENÜSÁV" style="rounded=1;whiteSpace=wrap;html=1;fontSize=20;" vertex="1" parent="1">
          <mxGeometry x="240" y="30" width="1000" height="60" as="geometry" />
        </mxCell>
        <mxCell id="ogQ2ZfTk6lIMwp81I9Cb-3" value="LÁBJEGYZET" style="rounded=1;whiteSpace=wrap;html=1;fontSize=20;" vertex="1" parent="1">
          <mxGeometry x="40" y="620" width="1200" height="60" as="geometry" />
        </mxCell>
        <mxCell id="ogQ2ZfTk6lIMwp81I9Cb-4" value="LOGÓ ÉS CÉGNÉV" style="rounded=1;whiteSpace=wrap;html=1;fontSize=20;" vertex="1" parent="1">
          <mxGeometry x="40" y="30" width="200" height="60" as="geometry" />
        </mxCell>
        <mxCell id="ogQ2ZfTk6lIMwp81I9Cb-5" value="" style="rounded=0;whiteSpace=wrap;html=1;fontSize=20;" vertex="1" parent="1">
          <mxGeometry x="40" y="90" width="1200" height="530" as="geometry" />
        </mxCell>
        <mxCell id="ogQ2ZfTk6lIMwp81I9Cb-6" value="FELHASZNÁLÓ INFORMÁCIÓK" style="rounded=0;whiteSpace=wrap;html=1;fontSize=16;" vertex="1" parent="1">
          <mxGeometry x="60" y="110" width="870" height="60" as="geometry" />
        </mxCell>
        <mxCell id="ogQ2ZfTk6lIMwp81I9Cb-7" value="JOGOSULTSÁG" style="rounded=0;whiteSpace=wrap;html=1;fontSize=16;" vertex="1" parent="1">
          <mxGeometry x="930" y="110" width="170" height="60" as="geometry" />
        </mxCell>
        <mxCell id="ogQ2ZfTk6lIMwp81I9Cb-8" value="TÖRLÉS" style="rounded=0;whiteSpace=wrap;html=1;fontSize=16;" vertex="1" parent="1">
          <mxGeometry x="1100" y="110" width="120" height="60" as="geometry" />
        </mxCell>
        <mxCell id="ogQ2ZfTk6lIMwp81I9Cb-10" value="FELHASZNÁLÓ INFORMÁCIÓK" style="rounded=0;whiteSpace=wrap;html=1;fontSize=16;" vertex="1" parent="1">
          <mxGeometry x="60" y="170" width="870" height="60" as="geometry" />
        </mxCell>
        <mxCell id="ogQ2ZfTk6lIMwp81I9Cb-11" value="JOGOSULTSÁG" style="rounded=0;whiteSpace=wrap;html=1;fontSize=16;" vertex="1" parent="1">
          <mxGeometry x="930" y="170" width="170" height="60" as="geometry" />
        </mxCell>
        <mxCell id="ogQ2ZfTk6lIMwp81I9Cb-12" value="TÖRLÉS" style="rounded=0;whiteSpace=wrap;html=1;fontSize=16;" vertex="1" parent="1">
          <mxGeometry x="1100" y="170" width="120" height="60" as="geometry" />
        </mxCell>
        <mxCell id="ogQ2ZfTk6lIMwp81I9Cb-13" value="FELHASZNÁLÓ INFORMÁCIÓK" style="rounded=0;whiteSpace=wrap;html=1;fontSize=16;" vertex="1" parent="1">
          <mxGeometry x="60" y="230" width="870" height="60" as="geometry" />
        </mxCell>
        <mxCell id="ogQ2ZfTk6lIMwp81I9Cb-14" value="JOGOSULTSÁG" style="rounded=0;whiteSpace=wrap;html=1;fontSize=16;" vertex="1" parent="1">
          <mxGeometry x="930" y="230" width="170" height="60" as="geometry" />
        </mxCell>
        <mxCell id="ogQ2ZfTk6lIMwp81I9Cb-15" value="TÖRLÉS" style="rounded=0;whiteSpace=wrap;html=1;fontSize=16;" vertex="1" parent="1">
          <mxGeometry x="1100" y="230" width="120" height="60" as="geometry" />
        </mxCell>
        <mxCell id="ogQ2ZfTk6lIMwp81I9Cb-16" value="FELHASZNÁLÓ INFORMÁCIÓK" style="rounded=0;whiteSpace=wrap;html=1;fontSize=16;" vertex="1" parent="1">
          <mxGeometry x="60" y="290" width="870" height="60" as="geometry" />
        </mxCell>
        <mxCell id="ogQ2ZfTk6lIMwp81I9Cb-17" value="JOGOSULTSÁG" style="rounded=0;whiteSpace=wrap;html=1;fontSize=16;" vertex="1" parent="1">
          <mxGeometry x="930" y="290" width="170" height="60" as="geometry" />
        </mxCell>
        <mxCell id="ogQ2ZfTk6lIMwp81I9Cb-18" value="TÖRLÉS" style="rounded=0;whiteSpace=wrap;html=1;fontSize=16;" vertex="1" parent="1">
          <mxGeometry x="1100" y="290" width="120" height="60" as="geometry" />
        </mxCell>
        <mxCell id="ogQ2ZfTk6lIMwp81I9Cb-19" value="FELHASZNÁLÓ INFORMÁCIÓK" style="rounded=0;whiteSpace=wrap;html=1;fontSize=16;" vertex="1" parent="1">
          <mxGeometry x="60" y="350" width="870" height="60" as="geometry" />
        </mxCell>
        <mxCell id="ogQ2ZfTk6lIMwp81I9Cb-20" value="JOGOSULTSÁG" style="rounded=0;whiteSpace=wrap;html=1;fontSize=16;" vertex="1" parent="1">
          <mxGeometry x="930" y="350" width="170" height="60" as="geometry" />
        </mxCell>
        <mxCell id="ogQ2ZfTk6lIMwp81I9Cb-21" value="TÖRLÉS" style="rounded=0;whiteSpace=wrap;html=1;fontSize=16;" vertex="1" parent="1">
          <mxGeometry x="1100" y="350" width="120" height="60" as="geometry" />
        </mxCell>
        <mxCell id="ogQ2ZfTk6lIMwp81I9Cb-22" value="FELHASZNÁLÓ INFORMÁCIÓK" style="rounded=0;whiteSpace=wrap;html=1;fontSize=16;" vertex="1" parent="1">
          <mxGeometry x="60" y="410" width="870" height="60" as="geometry" />
        </mxCell>
        <mxCell id="ogQ2ZfTk6lIMwp81I9Cb-23" value="JOGOSULTSÁG" style="rounded=0;whiteSpace=wrap;html=1;fontSize=16;" vertex="1" parent="1">
          <mxGeometry x="930" y="410" width="170" height="60" as="geometry" />
        </mxCell>
        <mxCell id="ogQ2ZfTk6lIMwp81I9Cb-24" value="TÖRLÉS" style="rounded=0;whiteSpace=wrap;html=1;fontSize=16;" vertex="1" parent="1">
          <mxGeometry x="1100" y="410" width="120" height="60" as="geometry" />
        </mxCell>
        <mxCell id="ogQ2ZfTk6lIMwp81I9Cb-25" value="FELHASZNÁLÓ INFORMÁCIÓK" style="rounded=0;whiteSpace=wrap;html=1;fontSize=16;" vertex="1" parent="1">
          <mxGeometry x="60" y="530" width="870" height="60" as="geometry" />
        </mxCell>
        <mxCell id="ogQ2ZfTk6lIMwp81I9Cb-26" value="JOGOSULTSÁG" style="rounded=0;whiteSpace=wrap;html=1;fontSize=16;" vertex="1" parent="1">
          <mxGeometry x="930" y="530" width="170" height="60" as="geometry" />
        </mxCell>
        <mxCell id="ogQ2ZfTk6lIMwp81I9Cb-27" value="TÖRLÉS" style="rounded=0;whiteSpace=wrap;html=1;fontSize=16;" vertex="1" parent="1">
          <mxGeometry x="1100" y="530" width="120" height="60" as="geometry" />
        </mxCell>
        <mxCell id="ogQ2ZfTk6lIMwp81I9Cb-28" value="FELHASZNÁLÓ INFORMÁCIÓK" style="rounded=0;whiteSpace=wrap;html=1;fontSize=16;" vertex="1" parent="1">
          <mxGeometry x="60" y="470" width="870" height="60" as="geometry" />
        </mxCell>
        <mxCell id="ogQ2ZfTk6lIMwp81I9Cb-29" value="JOGOSULTSÁG" style="rounded=0;whiteSpace=wrap;html=1;fontSize=16;" vertex="1" parent="1">
          <mxGeometry x="930" y="470" width="170" height="60" as="geometry" />
        </mxCell>
        <mxCell id="ogQ2ZfTk6lIMwp81I9Cb-30" value="TÖRLÉS" style="rounded=0;whiteSpace=wrap;html=1;fontSize=16;" vertex="1" parent="1">
          <mxGeometry x="1100" y="470" width="120" height="60" as="geometry" />
        </mxCell>
      </root>
    </mxGraphModel>
  </diagram>
</mxfile>
